<?xml version="1.0" encoding="UTF-8" standalone="no"?>
<svg
   xmlns:dc="http://purl.org/dc/elements/1.1/"
   xmlns:cc="http://creativecommons.org/ns#"
   xmlns:rdf="http://www.w3.org/1999/02/22-rdf-syntax-ns#"
   xmlns:svg="http://www.w3.org/2000/svg"
   xmlns="http://www.w3.org/2000/svg"
   xmlns:sodipodi="http://sodipodi.sourceforge.net/DTD/sodipodi-0.dtd"
   xmlns:inkscape="http://www.inkscape.org/namespaces/inkscape"
   version="1.1"
   x="0px"
   y="0px"
   viewBox="0 0 88.381938 50"
   enable-background="new 0 0 90 90"
   xml:space="preserve"
   id="svg2"
   inkscape:version="0.48.5 r10040"
   width="100%"
   height="100%"
   sodipodi:docname="noun_161515_cc.svg"><metadata
     id="metadata40"><rdf:RDF><cc:Work
         rdf:about=""><dc:format>image/svg+xml</dc:format><dc:type
           rdf:resource="http://purl.org/dc/dcmitype/StillImage" /><dc:title /></cc:Work></rdf:RDF></metadata><defs
     id="defs38" /><sodipodi:namedview
     pagecolor="#ffffff"
     bordercolor="#666666"
     borderopacity="1"
     objecttolerance="10"
     gridtolerance="10"
     guidetolerance="10"
     inkscape:pageopacity="0"
     inkscape:pageshadow="2"
     inkscape:window-width="1057"
     inkscape:window-height="772"
     id="namedview36"
     showgrid="false"
     inkscape:zoom="2.0977778"
     inkscape:cx="44.156057"
     inkscape:cy="13.750001"
     inkscape:window-x="0"
     inkscape:window-y="0"
     inkscape:window-maximized="0"
     inkscape:current-layer="svg2"
     fit-margin-top="0"
     fit-margin-left="0"
     fit-margin-right="0"
     fit-margin-bottom="0" /><g
     id="g4"
     transform="translate(-0.8439438,-20)"
     style="fill:#80e5ff"><g
       id="g6"
       style="fill:#80e5ff"><g
         id="g8"
         style="fill:#80e5ff"><g
           id="g10"
           style="fill:#80e5ff"><path
             d="M 76.8,70 H 19.7 C 12.9,70 7,67.8 3.7,64.2 1.5,61.8 0.6,58.8 0.9,55.5 1.7,48.7 7.5,43.8 14.7,43.8 c 1.1,0 2.1,0.1 3.2,0.3 C 17.6,32.7 26.4,24 36,21 c 2.1,-0.6 4.3,-1 6.5,-1 8.7,0 17.4,4.9 21.1,11.7 4.5,-2.3 10.6,-1.3 14.3,2.2 3.4,3.2 4,8.6 2.8,12.5 4.6,1.6 8.9,6.6 8.5,12.8 C 88.8,65.3 83.4,70 76.8,70 z M 14.7,46.9 c -5.6,0 -10,3.7 -10.6,8.9 -0.3,2.4 0.4,4.5 2,6.2 2.7,3 7.7,4.7 13.6,4.7 h 57.1 c 5,0 8.9,-3.3 9.2,-7.8 0.3,-5.1 -3.8,-9.4 -7.8,-9.9 L 75.7,48.7 77,46.5 C 78.6,43.8 78.4,38.7 75.6,36 73.9,34.4 71.5,33.4 69,33.4 c -1.9,0 -3.7,0.6 -5.2,1.7 l -1.7,1.2 -0.8,-2 C 58.8,27.9 50.5,22.9 42.4,22.9 c -1.9,0 -3.8,0.3 -5.6,0.8 C 28,26.8 19.8,35.3 21.3,46 l 0.4,2.7 -2.5,-1 c -1.5,-0.5 -3,-0.8 -4.5,-0.8 z"
             id="path12"
             inkscape:connector-curvature="0"
             style="fill:#80e5ff" /></g></g></g><g
       id="g14"
       style="fill:#80e5ff"><g
         id="g16"
         style="fill:#80e5ff"><rect
           x="22.6"
           y="51.900002"
           width="9.6999998"
           height="12.2"
           id="rect18"
           style="fill:#80e5ff" /></g><g
         id="g20"
         style="fill:#80e5ff"><rect
           x="58.5"
           y="42"
           width="9.6999998"
           height="22.1"
           id="rect22"
           style="fill:#80e5ff" /></g><g
         id="g24"
         style="fill:#80e5ff"><rect
           x="34.599998"
           y="43.400002"
           width="9.6999998"
           height="20.6"
           id="rect26"
           style="fill:#80e5ff" /></g><g
         id="g28"
         style="fill:#80e5ff"><rect
           x="46.5"
           y="35.099998"
           width="9.6999998"
           height="28.9"
           id="rect30"
           style="fill:#80e5ff" /></g></g></g></svg>